<?xml version="1.0" encoding="iso-8859-1"?>
<!-- Generator: Adobe Illustrator 16.0.0, SVG Export Plug-In . SVG Version: 6.00 Build 0)  -->
<!DOCTYPE svg PUBLIC "-//W3C//DTD SVG 1.1//EN" "http://www.w3.org/Graphics/SVG/1.1/DTD/svg11.dtd">
<svg version="1.1" id="Capa_1" xmlns="http://www.w3.org/2000/svg" xmlns:xlink="http://www.w3.org/1999/xlink" x="0px" y="0px"
	 width="569.156px" height="569.156px" viewBox="0 0 569.156 569.156" style="enable-background:new 0 0 569.156 569.156;"
	 xml:space="preserve">
<g>
	<g>
		<path d="M471.109,96.39H36.271C16.27,96.39,0,112.617,0,132.562v304.033c0,19.945,16.27,36.172,36.271,36.172h434.839
			c20,0,36.27-16.227,36.27-36.172V132.562C507.379,112.617,491.109,96.39,471.109,96.39z M126.911,422.063
			c0,11.455-9.314,20.746-20.802,20.746H53.541c-11.49,0-20.802-9.291-20.802-20.746v-274.97c0-11.459,9.314-20.747,20.802-20.747
			h52.565c11.49,0,20.802,9.287,20.802,20.747v274.97H126.911z M242.75,422.063c0,11.455-9.314,20.746-20.802,20.746h-52.565
			c-11.49,0-20.802-9.291-20.802-20.746v-274.97c0-11.459,9.314-20.747,20.802-20.747h52.565c11.49,0,20.802,9.287,20.802,20.747
			V422.063L242.75,422.063z M358.592,422.063c0,11.455-9.314,20.746-20.801,20.746h-52.565c-11.491,0-20.802-9.291-20.802-20.746
			v-274.97c0-11.459,9.315-20.747,20.802-20.747h52.565c11.49,0,20.801,9.287,20.801,20.747V422.063z M474.436,422.063
			c0,11.455-9.314,20.746-20.803,20.746h-52.564c-11.49,0-20.803-9.291-20.803-20.746v-274.97c0-11.459,9.316-20.747,20.803-20.747
			h52.564c11.49,0,20.803,9.287,20.803,20.747V422.063z"/>
		<path d="M532.887,174.891c0,0-1.605,0-3.592,0s-3.592,2.727-3.592,6.086v207.199c0,3.361,1.605,6.086,3.592,6.086h3.592
			c20,0,36.27-16.227,36.27-36.172V211.063C569.16,191.118,552.887,174.891,532.887,174.891z"/>
	</g>
</g>
<g>
</g>
<g>
</g>
<g>
</g>
<g>
</g>
<g>
</g>
<g>
</g>
<g>
</g>
<g>
</g>
<g>
</g>
<g>
</g>
<g>
</g>
<g>
</g>
<g>
</g>
<g>
</g>
<g>
</g>
</svg>
