<?xml version="1.0" encoding="iso-8859-1"?>
<!-- Generator: Adobe Illustrator 16.0.0, SVG Export Plug-In . SVG Version: 6.00 Build 0)  -->
<!DOCTYPE svg PUBLIC "-//W3C//DTD SVG 1.1//EN" "http://www.w3.org/Graphics/SVG/1.1/DTD/svg11.dtd">
<svg version="1.1" id="Capa_1" xmlns="http://www.w3.org/2000/svg" xmlns:xlink="http://www.w3.org/1999/xlink" x="0px" y="0px"
	 width="569.16px" height="569.16px" viewBox="0 0 569.16 569.16" style="enable-background:new 0 0 569.16 569.16;"
	 xml:space="preserve">
<g>
	<g>
		<path d="M471.108,96.392H36.27c-20,0-36.27,16.227-36.27,36.172v304.033c0,19.945,16.27,36.172,36.27,36.172h434.838
			c20,0,36.271-16.227,36.271-36.172V132.564C507.382,112.619,491.108,96.392,471.108,96.392z M126.911,422.065
			c0,11.455-9.315,20.746-20.802,20.746H53.544c-11.49,0-20.802-9.291-20.802-20.746v-274.97c0-11.459,9.314-20.747,20.802-20.747
			h52.564c11.491,0,20.802,9.287,20.802,20.747V422.065z M242.753,422.065c0,11.455-9.314,20.746-20.802,20.746h-52.568
			c-11.49,0-20.802-9.291-20.802-20.746v-274.97c0-11.459,9.314-20.747,20.802-20.747h52.564c11.491,0,20.802,9.287,20.802,20.747
			v274.97H242.753z M358.592,422.065c0,11.455-9.314,20.746-20.802,20.746h-52.564c-11.49,0-20.802-9.291-20.802-20.746v-274.97
			c0-11.459,9.314-20.747,20.802-20.747h52.564c11.49,0,20.802,9.287,20.802,20.747V422.065z"/>
		<path d="M532.89,174.893c0,0-1.606,0-3.592,0c-1.986,0-3.593,2.727-3.593,6.086v207.199c0,3.361,1.606,6.086,3.593,6.086h3.592
			c20,0,36.271-16.227,36.271-36.172V211.065C569.16,191.12,552.89,174.893,532.89,174.893z"/>
	</g>
</g>
<g>
</g>
<g>
</g>
<g>
</g>
<g>
</g>
<g>
</g>
<g>
</g>
<g>
</g>
<g>
</g>
<g>
</g>
<g>
</g>
<g>
</g>
<g>
</g>
<g>
</g>
<g>
</g>
<g>
</g>
</svg>
