<?xml version="1.0" encoding="UTF-8" standalone="no"?>
<!-- Generator: Adobe Illustrator 19.0.0, SVG Export Plug-In . SVG Version: 6.00 Build 0)  -->

<svg
   xmlns:dc="http://purl.org/dc/elements/1.1/"
   xmlns:cc="http://creativecommons.org/ns#"
   xmlns:rdf="http://www.w3.org/1999/02/22-rdf-syntax-ns#"
   xmlns:svg="http://www.w3.org/2000/svg"
   xmlns="http://www.w3.org/2000/svg"
   xmlns:sodipodi="http://sodipodi.sourceforge.net/DTD/sodipodi-0.dtd"
   xmlns:inkscape="http://www.inkscape.org/namespaces/inkscape"
   version="1.1"
   id="Layer_1"
   x="0px"
   y="0px"
   viewBox="0 0 512 512"
   style="enable-background:new 0 0 512 512;"
   xml:space="preserve"
   sodipodi:docname="net-offline.svg"
   inkscape:version="0.92.3 (2405546, 2018-03-11)"><metadata
   id="metadata856"><rdf:RDF><cc:Work
       rdf:about=""><dc:format>image/svg+xml</dc:format><dc:type
         rdf:resource="http://purl.org/dc/dcmitype/StillImage" /></cc:Work></rdf:RDF></metadata><defs
   id="defs854" /><sodipodi:namedview
   pagecolor="#ffffff"
   bordercolor="#666666"
   borderopacity="1"
   objecttolerance="10"
   gridtolerance="10"
   guidetolerance="10"
   inkscape:pageopacity="0"
   inkscape:pageshadow="2"
   inkscape:window-width="1366"
   inkscape:window-height="745"
   id="namedview852"
   showgrid="false"
   inkscape:zoom="1.125"
   inkscape:cx="256"
   inkscape:cy="256"
   inkscape:window-x="-8"
   inkscape:window-y="-8"
   inkscape:window-maximized="1"
   inkscape:current-layer="Layer_1" />
<g
   id="g819">
	<g
   id="g817">
		<path
   d="M501.333,245.333H266.667V192h64c5.896,0,10.667-4.771,10.667-10.667v-128c0-5.896-4.771-10.667-10.667-10.667H181.333    c-5.896,0-10.667,4.771-10.667,10.667v128c0,5.896,4.771,10.667,10.667,10.667h64v53.333H10.667C4.771,245.333,0,250.104,0,256    c0,5.896,4.771,10.667,10.667,10.667h106.667V320h-64c-5.896,0-10.667,4.771-10.667,10.667v128    c0,5.896,4.771,10.667,10.667,10.667h149.333c5.896,0,10.667-4.771,10.667-10.667v-128c0-5.896-4.771-10.667-10.667-10.667h-64    v-53.333h234.667V320h-64c-5.896,0-10.667,4.771-10.667,10.667v128c0,5.896,4.771,10.667,10.667,10.667h149.333    c5.896,0,10.667-4.771,10.667-10.667v-128c0-5.896-4.771-10.667-10.667-10.667h-64v-53.333h106.667    c5.896,0,10.667-4.771,10.667-10.667C512,250.104,507.229,245.333,501.333,245.333z M192,341.333V448H64V341.333H192z     M192,170.667V64h128v106.667H192z M448,341.333V448H320V341.333H448z"
   id="path815" />
	</g>
</g>
<g
   id="g821">
</g>
<g
   id="g823">
</g>
<g
   id="g825">
</g>
<g
   id="g827">
</g>
<g
   id="g829">
</g>
<g
   id="g831">
</g>
<g
   id="g833">
</g>
<g
   id="g835">
</g>
<g
   id="g837">
</g>
<g
   id="g839">
</g>
<g
   id="g841">
</g>
<g
   id="g843">
</g>
<g
   id="g845">
</g>
<g
   id="g847">
</g>
<g
   id="g849">
</g>
<path
   style="fill:none;stroke:#000000;stroke-width:28.34645669;stroke-linecap:round;stroke-linejoin:round;stroke-miterlimit:4;stroke-dasharray:none;stroke-opacity:1"
   d="M 215.76808,220.21252 476.67637,481.12081 Z"
   id="path858"
   inkscape:connector-curvature="0" /><path
   style="fill:none;stroke:#000000;stroke-width:28.34645669;stroke-linecap:round;stroke-linejoin:round;stroke-miterlimit:4;stroke-dasharray:none;stroke-opacity:1"
   d="M 476.23192,219.76808 215.32364,480.67637 Z"
   id="path858-6"
   inkscape:connector-curvature="0" /></svg>