<?xml version="1.0" encoding="UTF-8" standalone="no"?>
<!-- Generator: Adobe Illustrator 19.0.0, SVG Export Plug-In . SVG Version: 6.00 Build 0)  -->

<svg
   xmlns:dc="http://purl.org/dc/elements/1.1/"
   xmlns:cc="http://creativecommons.org/ns#"
   xmlns:rdf="http://www.w3.org/1999/02/22-rdf-syntax-ns#"
   xmlns:svg="http://www.w3.org/2000/svg"
   xmlns="http://www.w3.org/2000/svg"
   xmlns:sodipodi="http://sodipodi.sourceforge.net/DTD/sodipodi-0.dtd"
   xmlns:inkscape="http://www.inkscape.org/namespaces/inkscape"
   version="1.1"
   id="Layer_1"
   x="0px"
   y="0px"
   viewBox="0 0 512 512"
   style="enable-background:new 0 0 512 512;"
   xml:space="preserve"
   sodipodi:docname="net-unkown.svg"
   inkscape:version="0.92.3 (2405546, 2018-03-11)"><metadata
   id="metadata899"><rdf:RDF><cc:Work
       rdf:about=""><dc:format>image/svg+xml</dc:format><dc:type
         rdf:resource="http://purl.org/dc/dcmitype/StillImage" /><dc:title></dc:title></cc:Work></rdf:RDF></metadata><defs
   id="defs897" /><sodipodi:namedview
   pagecolor="#ffffff"
   bordercolor="#666666"
   borderopacity="1"
   objecttolerance="10"
   gridtolerance="10"
   guidetolerance="10"
   inkscape:pageopacity="0"
   inkscape:pageshadow="2"
   inkscape:window-width="1366"
   inkscape:window-height="745"
   id="namedview895"
   showgrid="false"
   inkscape:zoom="0.5625"
   inkscape:cx="283.49494"
   inkscape:cy="69.143567"
   inkscape:window-x="-8"
   inkscape:window-y="-8"
   inkscape:window-maximized="1"
   inkscape:current-layer="Layer_1" />
<g
   id="g862">
	<g
   id="g860">
		<path
   d="M501.333,245.333H266.667V192h64c5.896,0,10.667-4.771,10.667-10.667v-128c0-5.896-4.771-10.667-10.667-10.667H181.333    c-5.896,0-10.667,4.771-10.667,10.667v128c0,5.896,4.771,10.667,10.667,10.667h64v53.333H10.667C4.771,245.333,0,250.104,0,256    c0,5.896,4.771,10.667,10.667,10.667h106.667V320h-64c-5.896,0-10.667,4.771-10.667,10.667v128    c0,5.896,4.771,10.667,10.667,10.667h149.333c5.896,0,10.667-4.771,10.667-10.667v-128c0-5.896-4.771-10.667-10.667-10.667h-64    v-53.333h234.667V320h-64c-5.896,0-10.667,4.771-10.667,10.667v128c0,5.896,4.771,10.667,10.667,10.667h149.333    c5.896,0,10.667-4.771,10.667-10.667v-128c0-5.896-4.771-10.667-10.667-10.667h-64v-53.333h106.667    c5.896,0,10.667-4.771,10.667-10.667C512,250.104,507.229,245.333,501.333,245.333z M192,341.333V448H64V341.333H192z     M192,170.667V64h128v106.667H192z M448,341.333V448H320V341.333H448z"
   id="path858" />
	</g>
</g>
<g
   id="g864">
</g>
<g
   id="g866">
</g>
<g
   id="g868">
</g>
<g
   id="g870">
</g>
<g
   id="g872">
</g>
<g
   id="g874">
</g>
<g
   id="g876">
</g>
<g
   id="g878">
</g>
<g
   id="g880">
</g>
<g
   id="g882">
</g>
<g
   id="g884">
</g>
<g
   id="g886">
</g>
<g
   id="g888">
</g>
<g
   id="g890">
</g>
<g
   id="g892">
</g>
<flowRoot
   xml:space="preserve"
   id="flowRoot901"
   style="font-style:normal;font-variant:normal;font-weight:normal;font-stretch:normal;font-size:40px;line-height:1.25;font-family:RomanD;-inkscape-font-specification:RomanD;letter-spacing:0px;word-spacing:0px;fill:#000000;fill-opacity:1;stroke:none"
   transform="matrix(1.5396391,0,0,1.5396391,155.19488,-223.34228)"><flowRegion
     id="flowRegion903"><rect
       id="rect905"
       width="222.22223"
       height="223.11111"
       x="129.77777"
       y="120" /></flowRegion><flowPara
     id="flowPara907"
     style="font-style:normal;font-variant:normal;font-weight:500;font-stretch:normal;font-size:192px;font-family:Roboto;-inkscape-font-specification:'Roboto Medium'">?</flowPara></flowRoot></svg>